<mxfile host="drawio-plugin" modified="2023-06-05T17:09:02.989Z" agent="5.0 (X11; Linux x86_64) AppleWebKit/537.36 (KHTML, like Gecko) Chrome/104.0.5112.102 Safari/537.36" version="20.5.3" etag="v7Laxp0ChQGjtveNqmM9" type="embed"><diagram id="LvBFF-H_oW3GnUr-EvsX" name="Page-1"><mxGraphModel dx="1298" dy="757" grid="1" gridSize="10" guides="1" tooltips="1" connect="1" arrows="1" fold="1" page="1" pageScale="1" pageWidth="827" pageHeight="1169" math="0" shadow="0"><root><mxCell id="0"/><mxCell id="1" parent="0"/><mxCell id="2" value="" style="ellipse;html=1;shape=startState;fillColor=#000000;strokeColor=#7EA6E0;" vertex="1" parent="1"><mxGeometry x="684.94" y="61" width="30" height="30" as="geometry"/></mxCell><mxCell id="3" value="" style="edgeStyle=orthogonalEdgeStyle;html=1;verticalAlign=bottom;endArrow=open;strokeColor=#7EA6E0;rounded=0;entryX=0.5;entryY=0;entryDx=0;entryDy=0;endFill=0;startArrow=none;startFill=0;" edge="1" source="2" parent="1" target="4"><mxGeometry relative="1" as="geometry"><mxPoint x="699.94" y="151" as="targetPoint"/></mxGeometry></mxCell><mxCell id="4" value="Router" style="rounded=1;whiteSpace=wrap;html=1;arcSize=40;fillColor=#ffe6cc;strokeColor=#7EA6E0;" vertex="1" parent="1"><mxGeometry x="639.94" y="141" width="120" height="40" as="geometry"/></mxCell><mxCell id="5" value="" style="edgeStyle=orthogonalEdgeStyle;html=1;verticalAlign=bottom;endArrow=open;strokeColor=#7EA6E0;rounded=0;entryX=0.5;entryY=0;entryDx=0;entryDy=0;exitX=0.5;exitY=1;exitDx=0;exitDy=0;endFill=0;startArrow=none;startFill=0;" edge="1" source="4" parent="1" target="6"><mxGeometry relative="1" as="geometry"><mxPoint x="699.94" y="254" as="targetPoint"/><mxPoint x="699.94" y="189" as="sourcePoint"/></mxGeometry></mxCell><mxCell id="6" value="ProcessorPlan" style="rounded=1;whiteSpace=wrap;html=1;arcSize=40;fillColor=#ffe6cc;strokeColor=#7EA6E0;" vertex="1" parent="1"><mxGeometry x="639.94" y="231" width="120" height="40" as="geometry"/></mxCell><mxCell id="8" value="Have next &lt;br&gt;Routing Result to process" style="rhombus;whiteSpace=wrap;html=1;fillColor=#ffe6cc;strokeColor=#7EA6E0;" vertex="1" parent="1"><mxGeometry x="639.94" y="331" width="120" height="70" as="geometry"/></mxCell><mxCell id="9" value="Yes" style="edgeStyle=orthogonalEdgeStyle;html=1;align=left;verticalAlign=bottom;endArrow=open;strokeColor=#7EA6E0;rounded=0;exitX=0.967;exitY=0.484;exitDx=0;exitDy=0;exitPerimeter=0;entryX=1;entryY=0.5;entryDx=0;entryDy=0;endFill=0;startArrow=none;startFill=0;" edge="1" source="8" parent="1" target="6"><mxGeometry x="-0.8905" y="-5" relative="1" as="geometry"><mxPoint x="820" y="270" as="targetPoint"/><Array as="points"><mxPoint x="756" y="366"/><mxPoint x="820" y="366"/><mxPoint x="820" y="251"/></Array><mxPoint as="offset"/></mxGeometry></mxCell><mxCell id="10" value="no" style="edgeStyle=orthogonalEdgeStyle;html=1;align=left;verticalAlign=top;endArrow=open;endSize=8;strokeColor=#7EA6E0;rounded=0;endFill=0;startArrow=none;startFill=0;" edge="1" source="8" parent="1"><mxGeometry x="-1" y="5" relative="1" as="geometry"><mxPoint x="699.94" y="451" as="targetPoint"/><mxPoint as="offset"/></mxGeometry></mxCell><mxCell id="12" value="" style="ellipse;html=1;shape=endState;fillColor=#000000;strokeColor=#7EA6E0;" vertex="1" parent="1"><mxGeometry x="684.94" y="451" width="30" height="30" as="geometry"/></mxCell><mxCell id="15" value="Workplan" style="swimlane;whiteSpace=wrap;html=1;strokeColor=#CCCCCC;" vertex="1" parent="1"><mxGeometry x="175" y="20" width="200" height="580" as="geometry"/></mxCell><mxCell id="14" value="Result" style="ellipse;shape=umlEntity;whiteSpace=wrap;html=1;fillColor=#d5e8d4;strokeColor=#82b366;" vertex="1" parent="15"><mxGeometry x="75" y="190" width="50" height="50" as="geometry"/></mxCell><mxCell id="16" value="Client" style="ellipse;shape=umlEntity;whiteSpace=wrap;html=1;fillColor=#fff2cc;strokeColor=#d6b656;" vertex="1" parent="15"><mxGeometry x="75" y="95" width="50" height="50" as="geometry"/></mxCell><mxCell id="13" value="Request" style="ellipse;shape=umlEntity;whiteSpace=wrap;html=1;fillColor=#fff2cc;strokeColor=#d6b656;" vertex="1" parent="15"><mxGeometry x="75" y="30" width="50" height="50" as="geometry"/></mxCell><mxCell id="23" value="" style="curved=1;endArrow=classic;html=1;rounded=0;exitX=0.471;exitY=1.027;exitDx=0;exitDy=0;exitPerimeter=0;dashed=1;" edge="1" parent="15" source="14" target="14"><mxGeometry width="50" height="50" relative="1" as="geometry"><mxPoint x="55" y="280" as="sourcePoint"/><mxPoint x="105" y="230" as="targetPoint"/><Array as="points"><mxPoint x="95" y="270"/><mxPoint x="55" y="260"/><mxPoint x="55" y="230"/></Array></mxGeometry></mxCell><mxCell id="25" value="Response" style="ellipse;shape=umlEntity;whiteSpace=wrap;html=1;fillColor=#e1d5e7;strokeColor=#9673a6;" vertex="1" parent="15"><mxGeometry x="62.5" y="400" width="75" height="70" as="geometry"/></mxCell><mxCell id="17" value="" style="endArrow=classic;html=1;rounded=0;exitX=1;exitY=0.5;exitDx=0;exitDy=0;entryX=0;entryY=0.5;entryDx=0;entryDy=0;strokeColor=#67AB9F;" edge="1" parent="1" source="16" target="4"><mxGeometry width="50" height="50" relative="1" as="geometry"><mxPoint x="190" y="210" as="sourcePoint"/><mxPoint x="410" y="160" as="targetPoint"/></mxGeometry></mxCell><mxCell id="18" value="" style="endArrow=classic;html=1;rounded=0;exitX=1.036;exitY=0.6;exitDx=0;exitDy=0;exitPerimeter=0;entryX=0;entryY=0.5;entryDx=0;entryDy=0;strokeColor=#67AB9F;" edge="1" parent="1" source="13" target="4"><mxGeometry width="50" height="50" relative="1" as="geometry"><mxPoint x="311.5" y="152.2" as="sourcePoint"/><mxPoint x="430" y="170" as="targetPoint"/><Array as="points"><mxPoint x="540" y="140"/></Array></mxGeometry></mxCell><mxCell id="19" value="" style="endArrow=classic;html=1;rounded=0;exitX=0;exitY=0.75;exitDx=0;exitDy=0;entryX=1;entryY=0.4;entryDx=0;entryDy=0;entryPerimeter=0;strokeColor=#B5739D;" edge="1" parent="1" source="4" target="14"><mxGeometry width="50" height="50" relative="1" as="geometry"><mxPoint x="330" y="160" as="sourcePoint"/><mxPoint x="380" y="110" as="targetPoint"/></mxGeometry></mxCell><mxCell id="20" value="" style="endArrow=classic;html=1;rounded=0;exitX=1.033;exitY=0.573;exitDx=0;exitDy=0;exitPerimeter=0;entryX=0;entryY=0.5;entryDx=0;entryDy=0;strokeColor=#67AB9F;" edge="1" parent="1" source="14" target="6"><mxGeometry width="50" height="50" relative="1" as="geometry"><mxPoint x="330" y="200" as="sourcePoint"/><mxPoint x="380" y="150" as="targetPoint"/></mxGeometry></mxCell><mxCell id="21" value="" style="endArrow=classic;html=1;rounded=0;entryX=0;entryY=0.25;entryDx=0;entryDy=0;exitX=0.997;exitY=0.57;exitDx=0;exitDy=0;exitPerimeter=0;strokeColor=#67AB9F;" edge="1" parent="1" source="16" target="6"><mxGeometry width="50" height="50" relative="1" as="geometry"><mxPoint x="300" y="140" as="sourcePoint"/><mxPoint x="380" y="150" as="targetPoint"/></mxGeometry></mxCell><mxCell id="22" value="" style="endArrow=classic;html=1;rounded=0;exitX=0.997;exitY=0.582;exitDx=0;exitDy=0;exitPerimeter=0;strokeColor=#67AB9F;" edge="1" parent="1" source="13"><mxGeometry width="50" height="50" relative="1" as="geometry"><mxPoint x="340" y="180" as="sourcePoint"/><mxPoint x="640" y="240" as="targetPoint"/><Array as="points"/></mxGeometry></mxCell><mxCell id="24" value="&lt;i&gt;Next&lt;/i&gt;" style="text;html=1;strokeColor=none;fillColor=none;align=center;verticalAlign=middle;whiteSpace=wrap;rounded=0;" vertex="1" parent="1"><mxGeometry x="223" y="256" width="60" height="30" as="geometry"/></mxCell><mxCell id="28" value="Symfony Router" style="shape=process;whiteSpace=wrap;html=1;backgroundOutline=1;fillColor=#f5f5f5;fontColor=#333333;strokeColor=#666666;" vertex="1" parent="1"><mxGeometry x="860" y="140" width="110.06" height="41" as="geometry"/></mxCell><mxCell id="29" value="Use" style="endArrow=open;endSize=12;dashed=1;html=1;rounded=0;exitX=1;exitY=0.5;exitDx=0;exitDy=0;entryX=-0.031;entryY=0.506;entryDx=0;entryDy=0;entryPerimeter=0;strokeColor=#9673a6;fillColor=#e1d5e7;" edge="1" parent="1" source="4" target="28"><mxGeometry width="160" relative="1" as="geometry"><mxPoint x="599.94" y="261" as="sourcePoint"/><mxPoint x="759.94" y="261" as="targetPoint"/></mxGeometry></mxCell><mxCell id="40" value="" style="ellipse;html=1;shape=startState;fillColor=#000000;strokeColor=#ff0000;" vertex="1" parent="1"><mxGeometry x="495" y="300" width="30" height="30" as="geometry"/></mxCell><mxCell id="41" value="" style="edgeStyle=orthogonalEdgeStyle;html=1;verticalAlign=bottom;endArrow=open;strokeColor=#7EA6E0;rounded=0;endFill=0;startArrow=none;startFill=0;" edge="1" source="40" parent="1"><mxGeometry relative="1" as="geometry"><mxPoint x="510" y="366" as="targetPoint"/></mxGeometry></mxCell><mxCell id="42" value="Processor" style="rounded=1;whiteSpace=wrap;html=1;arcSize=40;fillColor=#ffe6cc;strokeColor=#7EA6E0;" vertex="1" parent="1"><mxGeometry x="450" y="366" width="120" height="40" as="geometry"/></mxCell><mxCell id="43" value="" style="edgeStyle=orthogonalEdgeStyle;html=1;verticalAlign=bottom;endArrow=open;strokeColor=#7EA6E0;rounded=0;endFill=0;startArrow=none;startFill=0;" edge="1" source="42" parent="1"><mxGeometry relative="1" as="geometry"><mxPoint x="510" y="466" as="targetPoint"/></mxGeometry></mxCell><mxCell id="45" value="&amp;lt;&amp;lt; Dynamic Step with controller key &amp;gt;&amp;gt;" style="rounded=1;whiteSpace=wrap;html=1;arcSize=40;fillColor=#ffe6cc;strokeColor=#7EA6E0;" vertex="1" parent="1"><mxGeometry x="450" y="436" width="120" height="40" as="geometry"/></mxCell><mxCell id="48" value="" style="endArrow=classic;html=1;rounded=0;exitX=0;exitY=0.5;exitDx=0;exitDy=0;strokeColor=#B5739D;" edge="1" parent="1" source="45" target="25"><mxGeometry width="50" height="50" relative="1" as="geometry"><mxPoint x="350" y="360" as="sourcePoint"/><mxPoint x="400" y="310" as="targetPoint"/></mxGeometry></mxCell><mxCell id="49" value="" style="endArrow=classic;html=1;rounded=0;entryX=0;entryY=0;entryDx=0;entryDy=0;strokeColor=#67AB9F;" edge="1" parent="1" source="14" target="42"><mxGeometry width="50" height="50" relative="1" as="geometry"><mxPoint x="350" y="340" as="sourcePoint"/><mxPoint x="400" y="290" as="targetPoint"/></mxGeometry></mxCell><mxCell id="47" value="" style="ellipse;html=1;shape=endState;fillColor=#000000;strokeColor=#7EA6E0;" vertex="1" parent="1"><mxGeometry x="495" y="500" width="30" height="30" as="geometry"/></mxCell><mxCell id="53" value="" style="edgeStyle=orthogonalEdgeStyle;html=1;verticalAlign=bottom;endArrow=open;strokeColor=#7EA6E0;rounded=0;endFill=0;startArrow=none;startFill=0;" edge="1" parent="1" source="45" target="47"><mxGeometry relative="1" as="geometry"><mxPoint x="510" y="566" as="targetPoint"/><mxPoint x="510" y="476" as="sourcePoint"/></mxGeometry></mxCell><mxCell id="56" value="" style="curved=1;endArrow=open;html=1;rounded=0;exitX=1;exitY=0.5;exitDx=0;exitDy=0;strokeColor=#7EA6E0;endFill=0;startArrow=none;startFill=0;" edge="1" parent="1" source="47"><mxGeometry width="50" height="50" relative="1" as="geometry"><mxPoint x="550" y="450" as="sourcePoint"/><mxPoint x="700" y="330" as="targetPoint"/><Array as="points"><mxPoint x="610" y="500"/><mxPoint x="600" y="320"/></Array></mxGeometry></mxCell><mxCell id="57" value="" style="curved=1;endArrow=open;html=1;rounded=0;entryX=0.5;entryY=0;entryDx=0;entryDy=0;exitX=0.552;exitY=1.017;exitDx=0;exitDy=0;exitPerimeter=0;strokeColor=#7EA6E0;endFill=0;startArrow=none;startFill=0;" edge="1" parent="1" source="6" target="40"><mxGeometry width="50" height="50" relative="1" as="geometry"><mxPoint x="550" y="450" as="sourcePoint"/><mxPoint x="600" y="400" as="targetPoint"/><Array as="points"><mxPoint x="650" y="310"/><mxPoint x="580" y="270"/><mxPoint x="520" y="270"/></Array></mxGeometry></mxCell></root></mxGraphModel></diagram></mxfile>